<?xml version="1.0" encoding="UTF-8"?><svg xmlns="http://www.w3.org/2000/svg" viewBox="0 0 136 136"><defs><style>.cls-1{fill:#009bf4;}.cls-2{fill:#99d7fb;}</style></defs><g id="Icon"><path class="cls-1" d="m107,52.35v-21.92h-.02c.01-.18.02-.35.02-.52,0-4-2.88-9.7-16.58-14.11-5.19-1.66-11.29-2.93-17.92-3.74v6.05c17.82,2.31,28.5,7.76,28.5,11.8,0,5.26-18.11,12.91-46.5,12.91s-46.5-7.65-46.5-12.91c0-4.04,10.68-9.49,28.5-11.8v-6.05c-6.63.81-12.73,2.08-17.92,3.74C4.88,20.21,2,25.91,2,29.91c0,.17,0,.34.02.52h-.02v51.48c0,4,2.88,9.7,16.58,14.1,9.61,3.09,22.31,4.8,35.79,4.81,4.63,17.32,20.45,30.14,39.17,30.18h.1c10.78,0,20.91-4.19,28.53-11.8,7.64-7.63,11.84-17.8,11.83-28.62-.02-17.58-11.3-32.6-27-38.23ZM8,39.17c2.47,1.69,5.9,3.35,10.58,4.85,9.64,3.1,22.39,4.8,35.92,4.8s26.28-1.7,35.92-4.8c4.68-1.5,8.11-3.16,10.58-4.85v11.54c-2.44-.46-4.97-.71-7.55-.72-10.83-.07-20.98,4.17-28.62,11.8-1.98,1.98-3.73,4.13-5.24,6.42-1.65.06-3.35.09-5.09.09-28.39,0-46.5-7.65-46.5-12.91v-16.22Zm45,51.24c0,1.49.09,2.95.25,4.4-27.67-.22-45.25-7.72-45.25-12.9v-17.26c2.47,1.69,5.9,3.35,10.58,4.85,9.64,3.09,22.39,4.8,35.92,4.8.6,0,1.21,0,1.81-.01-2.18,5.02-3.32,10.48-3.31,16.12Zm64.93,24.55c-6.49,6.48-15.11,10.04-24.29,10.04h-.08c-15.45-.03-28.57-10.27-32.98-24.3-.6-1.92-1.04-3.91-1.3-5.96-.18-1.42-.28-2.87-.28-4.34,0-5.8,1.41-11.38,4.08-16.34,1.21-2.25,2.68-4.37,4.39-6.32.51-.59,1.04-1.16,1.6-1.71,6.48-6.47,15.1-10.04,24.28-10.04h.09c2.46.01,4.86.27,7.18.77.13.03.25.06.38.09.43.09.85.2,1.27.31,1.41.38,2.78.84,4.11,1.38.21.08.41.17.62.26,12.31,5.31,20.98,17.57,21,31.79,0,9.21-3.57,17.87-10.07,24.37Z"/><polygon class="cls-1" points="114.47 94.45 105.5 110 96.52 94.45 102.5 94.45 102.5 71 108.5 71 108.5 94.45 114.47 94.45"/><polygon class="cls-1" points="90.47 86.54 84.5 86.54 84.5 110 78.5 110 78.5 86.54 72.52 86.54 80.99 71.89 81.5 71 81.9 71.7 90.47 86.54"/></g><g id="_"><polygon class="cls-2" points="66.5 11.5 66.5 17.5 57.5 17.5 57.5 26.5 51.5 26.5 51.5 17.5 42.5 17.5 42.5 11.5 51.5 11.5 51.5 2.5 57.5 2.5 57.5 11.5 66.5 11.5"/></g></svg>