<?xml version="1.0" standalone="no"?>
<!DOCTYPE svg PUBLIC "-//W3C//DTD SVG 20010904//EN"
 "http://www.w3.org/TR/2001/REC-SVG-20010904/DTD/svg10.dtd">
<svg version="1.0" xmlns="http://www.w3.org/2000/svg"
 width="700.000000pt" height="700.000000pt" viewBox="0 0 700.000000 700.000000"
 preserveAspectRatio="xMidYMid meet">
<metadata>
Created by potrace 1.14, written by Peter Selinger 2001-2017
</metadata>
<g transform="translate(0.000000,700.000000) scale(0.100000,-0.100000)"
fill="#000000" stroke="none">
<path d="M2650 6640 l0 -230 -230 0 -230 0 -1 -47 c-1 -46 0 -240 1 -255 0 -5
103 -8 230 -8 l230 0 2 -232 3 -233 140 0 c77 -1 146 1 153 3 9 3 12 59 12
233 l0 229 230 0 c212 0 230 1 231 18 1 23 1 252 0 275 -1 16 -19 17 -231 17
l-230 0 0 230 0 230 -155 0 -155 0 0 -230z"/>
<path d="M1837 6374 c-1 -1 -22 -4 -47 -7 -300 -39 -598 -105 -870 -193 -58
-19 -114 -39 -125 -44 -11 -5 -58 -25 -105 -45 -298 -127 -493 -293 -562 -480
l-22 -60 -2 -1398 c-1 -769 3 -1419 7 -1445 33 -182 217 -369 494 -504 243
-118 685 -248 1000 -293 22 -3 69 -10 105 -16 36 -5 76 -12 90 -14 14 -2 50
-6 80 -10 30 -3 71 -8 90 -10 19 -2 69 -7 110 -11 41 -3 88 -8 105 -9 58 -8
383 -22 522 -24 l92 -1 16 -57 c28 -97 95 -263 148 -363 274 -526 763 -917
1332 -1065 49 -12 108 -26 130 -29 22 -3 63 -10 90 -16 136 -25 397 -28 570
-5 77 10 86 11 145 24 30 6 64 13 75 15 231 48 598 222 771 365 17 14 51 42
75 61 80 63 243 234 320 335 215 284 344 588 404 950 19 115 25 376 12 510
-62 653 -442 1254 -1008 1593 -87 52 -261 138 -331 163 l-38 13 0 61 c-1 33
-1 302 -1 598 -1 557 -3 594 -44 682 -120 259 -492 471 -1072 614 -89 22 -181
43 -205 46 -23 4 -45 8 -48 10 -7 4 -237 43 -303 51 -23 3 -57 7 -74 9 l-33 5
0 -154 c0 -174 -7 -161 85 -171 28 -3 61 -7 75 -10 14 -3 43 -7 65 -10 22 -3
47 -7 55 -10 8 -2 30 -7 48 -10 135 -23 382 -85 521 -131 412 -138 634 -298
616 -446 -11 -82 -151 -207 -316 -281 -30 -14 -76 -35 -104 -47 -134 -61 -535
-177 -671 -196 -27 -3 -52 -8 -55 -10 -6 -3 -17 -5 -109 -19 -25 -4 -52 -9
-60 -10 -20 -3 -98 -16 -130 -20 -14 -2 -50 -6 -80 -9 -30 -4 -68 -8 -85 -10
-253 -33 -724 -47 -1113 -32 -106 4 -200 9 -210 10 -9 2 -62 7 -117 11 -55 4
-106 8 -115 10 -8 1 -42 6 -75 9 -69 8 -250 33 -280 40 -11 2 -40 7 -65 11
-83 14 -94 16 -260 55 -440 102 -772 252 -890 401 -72 91 -64 158 33 253 157
155 489 290 962 392 30 6 247 46 270 49 41 6 111 16 130 19 19 3 20 12 23 159
2 152 2 156 -18 154 -12 -1 -22 -2 -23 -3z m-1398 -1408 c24 -20 164 -94 260
-136 154 -67 511 -176 671 -204 19 -3 46 -8 60 -11 162 -31 244 -47 270 -50 8
-1 35 -5 60 -8 25 -4 72 -9 105 -12 33 -3 67 -8 75 -10 8 -2 51 -7 95 -11 44
-3 87 -8 96 -9 8 -2 74 -6 145 -10 71 -4 152 -9 179 -11 66 -5 597 -5 700 1
183 9 273 15 315 19 25 3 74 8 110 11 240 22 533 70 770 126 173 41 404 112
510 156 85 36 268 129 296 150 17 13 33 23 37 23 3 0 5 -133 5 -295 0 -162 -1
-295 -2 -295 -2 0 -25 4 -52 9 -126 24 -403 33 -549 18 -479 -50 -913 -256
-1256 -597 -80 -79 -184 -204 -238 -282 -37 -55 -5 -50 -311 -51 -174 0 -429
8 -530 17 -25 3 -81 7 -125 10 -44 4 -91 8 -105 10 -14 3 -56 8 -95 12 -38 5
-74 9 -80 9 -5 1 -35 5 -65 10 -30 4 -64 9 -75 11 -56 7 -113 18 -245 45 -80
17 -152 32 -160 34 -8 3 -40 11 -70 19 -30 7 -95 26 -145 42 -49 15 -92 29
-95 29 -3 1 -18 7 -33 13 -16 7 -32 12 -36 12 -14 0 -100 38 -216 96 -122 61
-224 137 -270 203 l-30 43 -3 439 c-1 241 0 439 4 439 4 0 15 -6 23 -14z
m4611 -865 c678 -97 1235 -565 1450 -1221 40 -122 43 -135 66 -267 39 -231 19
-541 -50 -776 -162 -555 -597 -1005 -1141 -1180 -60 -20 -126 -39 -145 -43
-19 -4 -39 -9 -45 -10 -50 -10 -142 -24 -195 -29 -77 -8 -302 -9 -345 -2 -16
3 -50 8 -75 12 -90 13 -106 16 -165 31 -576 146 -1018 530 -1244 1082 -24 58
-61 172 -68 211 -2 13 -6 27 -8 31 -5 8 -33 173 -40 240 -12 105 -6 347 10
432 3 13 8 39 11 58 86 487 402 942 831 1197 68 40 173 92 268 132 31 13 175
59 208 66 10 2 26 6 35 9 9 3 37 8 62 11 24 4 47 8 51 10 3 3 39 7 80 11 41 3
75 7 76 8 8 8 303 -3 373 -13z m-4460 -530 c119 -60 245 -110 397 -157 118
-36 282 -80 337 -90 16 -3 32 -6 35 -8 3 -2 28 -7 55 -10 27 -4 52 -9 56 -11
3 -2 25 -6 50 -10 25 -4 47 -8 50 -10 3 -1 25 -6 50 -9 25 -3 56 -8 70 -10 53
-9 126 -19 150 -21 14 -2 52 -6 85 -9 33 -4 76 -9 95 -11 19 -2 67 -7 105 -10
39 -3 93 -8 120 -10 80 -7 379 -18 518 -19 141 -1 139 1 108 -69 -22 -48 -75
-219 -90 -287 -39 -178 -49 -288 -48 -498 l2 -203 -175 6 c-173 5 -262 10
-370 20 -30 3 -80 8 -110 10 -102 9 -174 19 -450 60 -78 11 -297 60 -411 91
-422 114 -714 267 -789 413 -18 37 -19 62 -20 496 l0 456 42 -26 c24 -14 86
-48 138 -74z"/>
<path d="M5281 3340 c-4 -3 -7 -274 -6 -602 l0 -598 -152 -2 -153 -3 100 -170
c55 -93 103 -177 106 -185 8 -17 170 -297 222 -384 l35 -59 15 29 c8 16 106
187 217 379 111 193 207 360 214 373 l12 22 -146 -1 c-81 0 -150 2 -153 6 -4
4 -7 275 -7 603 l0 597 -148 0 c-82 0 -152 -2 -156 -5z"/>
<path d="M4019 3043 c-94 -164 -183 -318 -197 -342 -14 -25 -38 -67 -53 -93
-16 -27 -29 -52 -29 -56 0 -4 68 -7 150 -7 l150 0 0 -602 0 -603 35 -1 c19 0
78 0 130 0 52 0 106 0 120 0 l25 1 0 603 0 603 150 -1 c83 0 150 3 150 6 0 4
-72 132 -161 285 -89 154 -190 330 -226 392 -35 61 -66 112 -68 112 -2 0 -81
-134 -176 -297z"/>
</g>
</svg>
